<svg width="18" height="18" viewBox="0 0 18 18" fill="none" xmlns="http://www.w3.org/2000/svg">
<g clip-path="url(#clip0_0_45)">
<path fill-rule="evenodd" clip-rule="evenodd" d="M13.0607 4.93934C13.6464 5.52513 13.6464 6.47487 13.0607 7.06066L10.1213 10L13.0607 12.9393C13.6464 13.5251 13.6464 14.4749 13.0607 15.0607C12.4749 15.6464 11.5251 15.6464 10.9393 15.0607L8 12.1213L5.06066 15.0607C4.47487 15.6464 3.52513 15.6464 2.93934 15.0607C2.35355 14.4749 2.35355 13.5251 2.93934 12.9393L5.87868 10L2.93934 7.06066C2.35355 6.47487 2.35355 5.52513 2.93934 4.93934C3.52513 4.35355 4.47487 4.35355 5.06066 4.93934L8 7.87868L10.9393 4.93934C11.5251 4.35355 12.4749 4.35355 13.0607 4.93934Z" fill="#A6B1C3"/>
</g>
<defs>
<clipPath id="clip0_0_45">
<rect width="18" height="18" fill="white"/>
</clipPath>
</defs>
</svg>