<svg width="18" height="18" viewBox="0 0 18 18" fill="none" xmlns="http://www.w3.org/2000/svg">
<g clip-path="url(#clip0_0_44)">
<path fill-rule="evenodd" clip-rule="evenodd" d="M9 3C5.36328 3 2.2582 5.28047 0.832031 8.25C2.2582 11.2195 5.36328 13.5 9 13.5C12.6367 13.5 15.7418 11.2195 17.168 8.25C15.7418 5.28047 12.6367 3 9 3ZM9 11.25C7.34297 11.25 6 9.90703 6 8.25C6 6.59297 7.34297 5.25 9 5.25C10.657 5.25 12 6.59297 12 8.25C12 9.90703 10.657 11.25 9 11.25ZM9 9.75C8.17172 9.75 7.5 9.07828 7.5 8.25C7.5 7.42172 8.17172 6.75 9 6.75C9.82828 6.75 10.5 7.42172 10.5 8.25C10.5 9.07828 9.82828 9.75 9 9.75Z" fill="#0153AB"/>
</g>
<defs>
<clipPath id="clip0_0_44">
<rect width="18" height="18" fill="white"/>
</clipPath>
</defs>
</svg>